<svg height='100px' width='100px'  fill="#000000" xmlns="http://www.w3.org/2000/svg" data-name="Layer 1" viewBox="0 0 94 80.55" x="0px" y="0px"><title>16</title><path d="M96.37,11.3a1.73,1.73,0,0,0-2.55-1.36l-.52.28L73.1,21l0,.12s.42,8.64-3.74,10.3a8.34,8.34,0,0,1-7.69-1,32.37,32.37,0,0,0-5,2.92c-2.49,6.23-4.92,4.24-4.92,4.24,0,3.23-1.82,4.9-4.22,5.31-2.91.5-3.53-5.56-3.53-5.56a2.52,2.52,0,0,1-.11-.66L22.3,48.28l-1.91.62L4.33,58.41a2.69,2.69,0,0,0-1.1,3.42A51.24,51.24,0,0,0,7.65,69.5c5.64,7.93,24.89,29.27,60.9,17.12C100.43,75.86,97.52,23.59,96.37,11.3ZM68,37.14c1.49.6,3.62,1.78,3.38,3.55A1.43,1.43,0,0,1,70,42c-1.79,0-2.65-2.29-3-3.85A.79.79,0,0,1,68,37.14Zm-6.23,5.75a.79.79,0,0,1,1.36-.59c1.24,1,2.91,2.8,2.14,4.41a1.43,1.43,0,0,1-1.78.77C61.84,46.93,61.71,44.5,61.81,42.89ZM55.06,45.3a.79.79,0,0,1,1.48,0c.73,1.43,1.57,3.72.23,4.9a1.43,1.43,0,0,1-1.94,0C53.49,49,54.33,46.73,55.06,45.3Zm13.49,37c-17,4.67-30.14-6.93-30.14-6.93-7.3-6-10.67-19-11.87-25.08l15.53-8.32c.91,4.65,4.28,16,15.55,15.92,13.78-.07,22.18-13.72,19.5-34.71L92.5,14.89C95.87,48.73,84.87,77.75,68.55,82.25Z" transform="translate(-3 -9.73)"></path></svg>